<?xml version="1.0" encoding="UTF-8"?>
<svg id="_レイヤー_2" data-name="レイヤー 2" xmlns="http://www.w3.org/2000/svg" viewBox="0 0 540.94 70.57">
  <defs>
    <style>
      .cls-1 {
        fill: #231815;
      }
    </style>
  </defs>
  <g id="_レイヤー_1-2" data-name="レイヤー 1">
    <g>
      <path class="cls-1" d="M59.41,34.56c0,11.67-7.7,19.44-24.55,19.44h-16.13v16.56H0V15.12h34.85c16.85,0,24.55,8.71,24.55,19.44ZM40.61,34.56c0-2.59-1.58-5.76-6.48-5.76h-15.41v11.52h15.41c4.9,0,6.48-3.17,6.48-5.76Z"/>
      <path class="cls-1" d="M117.08,54.01h-39.6c-8.06,0-17.35-1.3-17.35-10.95s10.22-11.38,17.35-11.38h20.88c0-1.58-1.15-2.88-3.6-2.88h-31.75v-13.68h34.13c14.47,0,19.95,6.12,19.95,13.68v25.2ZM79.27,40.32h19.08v-2.88h-19.08c-1.66,0-2.23.79-2.23,1.44s.58,1.44,2.23,1.44Z"/>
      <path class="cls-1" d="M138.67,54.01h-18.72v-19.44c0-11.66,7.71-19.44,24.55-19.44h15.77v13.68h-15.05c-4.9,0-6.55,3.17-6.55,5.76v19.44Z"/>
      <path class="cls-1" d="M216.51,54.01h-39.6c-8.06,0-17.35-1.3-17.35-10.95s10.22-11.38,17.35-11.38h20.88c0-1.58-1.15-2.88-3.6-2.88h-31.75v-13.68h34.13c14.47,0,19.95,6.12,19.95,13.68v25.2ZM178.71,40.32h19.08v-2.88h-19.08c-1.66,0-2.23.79-2.23,1.44s.58,1.44,2.23,1.44Z"/>
      <path class="cls-1" d="M238.11,0v54.01h-18.72V0h18.72Z"/>
      <path class="cls-1" d="M259.71,0v54.01h-18.72V0h18.72Z"/>
      <path class="cls-1" d="M281.38,37.44c.86,1.58,2.67,2.88,5.76,2.88h31.61v13.68h-32.33c-16.85,0-24.56-7.78-24.56-19.44,0-10.73,7.71-19.44,24.56-19.44h15.7c8.06,0,17.35,1.3,17.35,10.94s-10.22,11.38-17.35,11.38h-20.74ZM287.14,28.8c-3.1,0-4.9,1.3-5.76,2.88h18.94c1.66,0,2.23-.79,2.23-1.44s-.58-1.44-2.23-1.44h-13.18Z"/>
      <path class="cls-1" d="M340.34,0v54.01h-18.72V0h18.72Z"/>
      <path class="cls-1" d="M361.94,0v54.01h-18.72V0h18.72Z"/>
      <path class="cls-1" d="M383.62,37.44c.86,1.58,2.67,2.88,5.76,2.88h31.61v13.68h-32.33c-16.85,0-24.55-7.78-24.55-19.44,0-10.73,7.71-19.44,24.55-19.44h15.7c8.06,0,17.35,1.3,17.35,10.94s-10.22,11.38-17.35,11.38h-20.74ZM389.38,28.8c-3.1,0-4.9,1.3-5.76,2.88h18.94c1.66,0,2.23-.79,2.23-1.44s-.58-1.44-2.23-1.44h-13.18Z"/>
      <path class="cls-1" d="M480.1,54.01h-39.6c-8.06,0-17.35-1.3-17.35-10.95s10.23-11.38,17.35-11.38h20.88c0-1.58-1.15-2.88-3.6-2.88h-31.75v-13.68h34.13c14.47,0,19.95,6.12,19.95,13.68v25.2ZM442.29,40.32h19.08v-2.88h-19.08c-1.66,0-2.23.79-2.23,1.44s.58,1.44,2.23,1.44Z"/>
      <path class="cls-1" d="M482.97,54.01V15.12h33.41c16.85,0,24.55,7.78,24.55,19.44v19.44h-18.72v-19.44c0-2.59-1.66-5.76-6.55-5.76h-13.97v25.2h-18.72Z"/>
    </g>
  </g>
</svg>